<svg width="56" height="56" xmlns="http://www.w3.org/2000/svg">
  <defs>
    <linearGradient x1="0%" y1="7.585%" y2="100%" id="a">
      <stop stop-color="#C3FFF4" offset="0%"/>
      <stop stop-color="#C7E5FF" offset="100%"/>
    </linearGradient>
    <linearGradient x1="100%" y1="100%" x2="0%" y2="7.585%" id="b">
      <stop stop-color="#006DCC" offset="0%"/>
      <stop stop-color="#33A0FF" offset="100%"/>
    </linearGradient>
  </defs>
  <g fill="none" fill-rule="evenodd">
    <path fill="url(#a)" d="M0 0h56v56H0z"/>
    <path d="M1 0h7v8H0V1a1 1 0 0 1 1-1zm7 8h8v8H8V8zm8-8h7a1 1 0 0 1 1 1v7h-8V0zM0 16h8v8H1a1 1 0 0 1-1-1v-7zm16 0h8v7a1 1 0 0 1-1 1h-7v-8z" transform="translate(16 16)" fill="url(#b)"/>
  </g>
</svg>
