<svg width="128" height="72" xmlns="http://www.w3.org/2000/svg" xmlns:xlink="http://www.w3.org/1999/xlink"><defs><linearGradient x1="49.078%" y1="100%" x2="0%" y2="7.585%" id="a"><stop stop-color="#006DCC" offset="0%"/><stop stop-color="#338BF8" offset="39.97%"/><stop stop-color="#23FAD2" offset="100%"/></linearGradient><linearGradient x1="-94.286%" y1="64.95%" x2="50%" y2="64.95%" id="b"><stop stop-color="#EEE" offset="0%"/><stop stop-color="#C7E5FF" stop-opacity="0" offset="100%"/></linearGradient><linearGradient x1="50%" y1="0%" x2="50%" y2="100%" id="e"><stop stop-color="#EEE" offset="0%"/><stop stop-color="#C7E5FF" offset="100%"/></linearGradient><rect id="d" x="41" y="48" width="12" height="12" rx="1"/><filter x="-116.7%" y="-83.3%" width="333.3%" height="333.3%" filterUnits="objectBoundingBox" id="c"><feOffset dy="4" in="SourceAlpha" result="shadowOffsetOuter1"/><feGaussianBlur stdDeviation="4" in="shadowOffsetOuter1" result="shadowBlurOuter1"/><feColorMatrix values="0 0 0 0 0.207843137 0 0 0 0 0.145098039 0 0 0 0 0.82745098 0 0 0 0.16 0" in="shadowBlurOuter1"/></filter><linearGradient x1="25.271%" y1="16.878%" x2="78.485%" y2="86.122%" id="f"><stop stop-color="#EEE" offset="0%"/><stop stop-color="#C7E5FF" offset="100%"/></linearGradient></defs><g fill="none" fill-rule="evenodd"><g transform="translate(28)"><circle fill="url(#a)" cx="36" cy="36" r="36"/><path d="M65.682 56.376C51.035 53.443 40 40.51 40 25c0-8.766 3.525-16.71 9.235-22.49C62.57 7.786 72 20.79 72 36a35.834 35.834 0 0 1-6.318 20.376z" fill="url(#b)"/></g><g opacity=".48" transform="translate(16)"><use fill="#000" filter="url(#c)" xlink:href="#d"/><use fill="url(#e)" xlink:href="#d"/></g><path d="M25.406 32.584C20.458 19.694 27.128 5.144 40.305.086l5.376 14.004c2.376 6.19 2.14 13.091-.653 19.186-2.794 6.094-7.919 10.883-14.246 13.311C20.24 50.634 8.486 45.555 4.528 35.242L.944 25.907c10.541-4.047 22.295 1.033 26.254 11.345l-1.792-4.668z" fill="url(#f)" transform="translate(16)"/></g></svg>