<svg width="1440" height="342" xmlns="http://www.w3.org/2000/svg" xmlns:xlink="http://www.w3.org/1999/xlink"><defs><linearGradient x1="50%" y1="0%" x2="50%" y2="98.514%" id="a"><stop stop-color="#F5F6F7" offset="0%"/><stop stop-color="#F5F6F7" stop-opacity="0" offset="100%"/></linearGradient><path d="M671.508 214.185h-62.23c-18.098-19.494-41.228-39.044-79.601-51.27-90.346-28.786 160.5-6.237 146.904-128.006-13.596-121.77 141.405 109.792 127.68 164.84a104.328 104.328 0 0 1-4.735 14.436h-47.642c8.681-5.815 15.223-13.543 17.573-22.966 6.857-27.504-24.612-59.034-51.827-65.82-27.217-6.786-54.84 10.01-61.698 37.516-2.89 11.594 4.277 31.552 15.576 51.27z" id="b"/><linearGradient x1="50%" y1="0%" x2="50%" y2="100%" id="d"><stop stop-color="#00C7FA" offset="0%"/><stop stop-color="#55FBDC" offset="100%"/></linearGradient><path d="M53.435 12.797c25.843 0 86.94 55.217 86.94 81.163 0 25.947-20.95 46.98-46.792 46.98-25.84 0-61-21.033-61-46.98 0-25.946 35.16-46.98 61-46.98M150.307 212C135 123.706 277.947 106 210.205 72.763 142.463 39.526 145.245.06 93.583 0 41.9 0 0 42.068 0 93.96 0 145.851 165.614 300.294 150.307 212z" id="c"/><linearGradient x1="92.928%" y1="34.02%" x2="0%" y2="68.892%" id="e"><stop stop-color="#FFF" stop-opacity=".64" offset="0%"/><stop stop-color="#FFF" stop-opacity="0" offset="100%"/></linearGradient><linearGradient x1="50%" y1="0%" x2="66.362%" y2="96.878%" id="g"><stop stop-color="#3525D3" offset="0%"/><stop stop-color="#08F" stop-opacity=".32" offset="100%"/></linearGradient></defs><g transform="translate(-53)" fill="none" fill-rule="evenodd"><use fill="url(#a)" xlink:href="#b"/><g transform="translate(0 103)"><mask id="f" fill="#fff"><use xlink:href="#c"/></mask><use fill="url(#d)" xlink:href="#c"/><path d="M262.95 60.554l-23.456 47.225c-6.252-25.074-35.166-54.099-60.342-47.822-25.176 6.277-37.08 45.48-30.828 70.553 6.252 25.075 31.73 40.314 56.905 34.037 25.176-6.277 63.972-78.918 57.72-103.993zM93.098 202.74c-81.969 36.212 27.82-161.845 78.17-174.399 50.352-12.554 101.306 17.924 113.81 68.072 12.44 50.142-26.528 56.99-42.389 130.761-15.86 73.771-67.623-60.647-149.591-24.434z" fill="url(#e)" mask="url(#f)"/><path d="M160.239 95.785l-.343-4.711c-.155-1.563-.5-3.108-.759-4.656-.148-.772-.266-1.549-.446-2.312l-.636-2.27-.65-2.262-.329-1.128-.42-1.099-1.723-4.37c-1.382-2.804-2.701-5.644-4.439-8.242-3.306-5.295-7.037-10.407-11.647-14.749-.572-.544-1.098-1.145-1.716-1.638l-1.834-1.509c-1.237-.992-2.447-2.032-3.812-2.849-1.34-.852-2.672-1.729-4.065-2.492-1.428-.7-2.873-1.37-4.33-2.001-.76-.328-.683-.13.086.238 1.274.61 2.532 1.246 3.773 1.901 1.241.656 2.373 1.501 3.54 2.266l1.722 1.189c.575.39 1.083.877 1.623 1.314l3.151 2.712c.981.977 1.93 1.983 2.885 2.973.472.5.96.983 1.415 1.496l1.303 1.6c.854 1.075 1.762 2.099 2.577 3.199l2.384 3.352c3.029 4.496 5.725 9.287 7.523 14.448 1.053 2.526 1.636 5.203 2.339 7.839.314 1.327.465 2.686.689 4.03.204 1.347.437 2.691.454 4.054l.178 4.213c.017 1.403-.13 2.806-.201 4.206l-.143 2.1c-.037.7-.201 1.389-.298 2.083l-.705 4.149c-.324 1.364-.717 2.713-1.082 4.066l-.57 2.023-.742 1.966c-.512 1.304-.966 2.632-1.539 3.907l-1.856 3.765c-2.675 4.891-5.699 9.671-9.556 13.767-.469.522-.919 1.064-1.407 1.568l-1.529 1.451c-1.038.946-2.016 1.966-3.125 2.831l-3.356 2.558c-.552.439-1.144.817-1.75 1.175l-1.805 1.092c-2.361 1.535-4.993 2.575-7.532 3.751-1.32.474-2.653.917-3.981 1.361-.667.211-1.321.462-1.999.633l-2.045.473c-5.423 1.411-11.029 1.733-16.563 1.727l-4.157-.226-1.039-.059c-.345-.036-.688-.097-1.033-.145l-2.062-.308c-2.771-.315-5.455-1.077-8.155-1.763-1.345-.363-2.635-.902-3.952-1.355l-1.963-.718c-.647-.26-1.265-.582-1.898-.873-1.255-.604-2.521-1.19-3.756-1.831l-3.567-2.17c-4.625-3.07-9.005-6.585-12.64-10.805l-1.404-1.542-1.267-1.659c-.827-1.118-1.708-2.2-2.475-3.36-1.461-2.37-2.987-4.708-4.112-7.268-1.307-2.473-2.14-5.152-3.059-7.784-.399-1.336-.68-2.707-1.012-4.059l-.47-2.035-.287-2.068c-.178-1.379-.376-2.756-.524-4.134l-.151-4.151c-.015-.691-.07-1.382-.05-2.072l.109-2.071c.086-1.378.115-2.761.244-4.135a66.948 66.948 0 0 1 4.416-17.831l1.905-4.216c.71-1.366 1.509-2.689 2.276-4.031.73-1.369 1.686-2.587 2.577-3.853l1.366-1.88c.46-.623 1.004-1.178 1.507-1.768.882-.992 1.764-1.994 2.679-2.966l2.955-2.718c.504-.441.976-.921 1.508-1.329l1.599-1.22c1.079-.796 2.112-1.658 3.227-2.396 2.27-1.418 4.461-2.961 6.841-4.144 1.177-.611 2.304-1.328 3.506-1.87l3.574-1.679c.816-.393.198-.685-.641-.301-1.17.536-2.345 1.052-3.529 1.553-1.161.549-2.295 1.168-3.455 1.732-2.358 1.065-4.529 2.486-6.801 3.763-4.351 2.822-8.643 5.953-12.115 9.877-1.92 1.939-3.477 4.194-5.078 6.401-.789 1.112-1.422 2.331-2.125 3.499-.684 1.182-1.384 2.352-1.912 3.615l-1.681 3.728c-.509 1.261-.909 2.567-1.361 3.848l-.654 1.929c-.217.642-.34 1.313-.512 1.968l-.962 3.946c-.279 1.385-.45 2.789-.675 4.184l-.315 2.094c-.081.7-.097 1.405-.148 2.108L36 96.646c.012 1.408.086 2.817.135 4.227l.09 2.116c.065.702.178 1.401.267 2.103l.6 4.207 1.004 4.137c.181.687.33 1.384.545 2.06l.712 2.011c1.771 5.416 4.606 10.429 7.852 15.068l2.58 3.385c.908 1.088 1.898 2.107 2.85 3.156l1.449 1.552 1.57 1.43c1.06.938 2.074 1.93 3.18 2.811 2.262 1.709 4.485 3.478 6.959 4.881 2.368 1.573 4.969 2.731 7.519 3.982 1.299.57 2.648 1.029 3.974 1.538l2.002.739c.68.201 1.37.378 2.055.565 1.375.362 2.749.744 4.133 1.069l4.213.686c.704.098 1.404.248 2.112.299l2.125.14c1.417.077 2.834.206 4.252.223l4.261-.143c.709-.042 1.424-.022 2.129-.121l2.12-.277c5.682-.595 11.226-2.27 16.521-4.455l3.873-1.813c1.285-.618 2.478-1.406 3.719-2.113l1.84-1.097c.608-.375 1.167-.82 1.752-1.229 1.157-.84 2.318-1.676 3.457-2.54 2.127-1.905 4.377-3.701 6.259-5.87l1.461-1.577c.492-.522.974-1.053 1.396-1.634l2.612-3.422c.451-.56.82-1.177 1.198-1.788l1.125-1.841 1.105-1.853c.375-.613.642-1.286.964-1.929l1.812-3.917c.496-1.349.96-2.711 1.425-4.07.223-.683.477-1.355.667-2.046l.502-2.094c.314-1.399.688-2.784.927-4.192.358-2.836.876-5.65.881-8.497l.083-2.366.033-1.182c0-.393-.041-.787-.061-1.18" fill="url(#g)"/></g></g></svg>